<svg xmlns="http://www.w3.org/2000/svg" width="64" height="64" viewBox="0 0 64 64">
  <rect width="64" height="64" rx="18" fill="#1f2d26"/>
  <path d="M16 28c0-10 7-18 16-18s16 8 16 18v18H16z" fill="#62b979"/>
  <circle cx="32" cy="30" r="13" fill="#f2c897"/>
  <path d="M22 24c3-6 9-10 16-10 5 0 9 2 12 5-2-8-8-14-18-14-10 0-18 8-18 19v8h8z" fill="#4d8c5d"/>
  <path d="M42 22c6 1 10 7 10 14" stroke="#d7f5df" stroke-width="3" fill="none" stroke-linecap="round"/>
  <path d="M47 18c-4 3-6 10-6 18 0 6 1 11 3 16" stroke="#e2b470" stroke-width="3" fill="none" stroke-linecap="round"/>
  <path d="M47 18c4 3 7 8 9 13" stroke="#8d6335" stroke-width="3" fill="none" stroke-linecap="round"/>
  <path d="M17 52c3-7 8-10 15-10s12 3 15 10" fill="#8c6c4a"/>
</svg>
